<?xml version="1.0" standalone="no"?>
<!DOCTYPE svg PUBLIC "-//W3C//DTD SVG 20010904//EN"
 "http://www.w3.org/TR/2001/REC-SVG-20010904/DTD/svg10.dtd">
<svg version="1.0" xmlns="http://www.w3.org/2000/svg"
 width="612.000000pt" height="408.000000pt" viewBox="0 0 612.000000 408.000000"
 preserveAspectRatio="xMidYMid meet">

<g transform="translate(0.000000,408.000000) scale(0.11,-0.11)"
fill="rgb(46, 46, 46)" stroke="none">
<path d="M1736 3769 c-107 -7 -135 -16 -121 -38 6 -11 73 -10 208 5 31 3 47 1
47 -7 0 -6 -54 -74 -121 -150 -78 -91 -119 -145 -115 -155 5 -12 21 -14 98 -8
223 16 233 18 236 37 4 17 -4 18 -127 11 -72 -4 -131 -4 -131 0 0 4 54 69 120
145 66 76 120 146 120 155 0 18 -25 19 -214 5z" fill="rgb(46, 46, 46)"/>
<path d="M1315 3361 c-35 -4 -50 -10 -50 -21 0 -12 15 -14 88 -12 48 2 87 1
87 -3 0 -3 -36 -48 -80 -98 -108 -124 -107 -129 23 -121 125 7 150 11 144 27
-3 8 -31 12 -90 11 -48 0 -87 2 -87 6 0 4 38 51 85 105 47 53 83 101 79 106
-6 10 -117 10 -199 0z" fill="rgb(46, 46, 46)"/>
<path d="M2860 3169 c-186 -33 -333 -187 -396 -416 -16 -57 -19 -62 -40 -57
-25 6 -102 -24 -123 -49 -19 -23 -28 -21 -35 8 -8 30 -60 65 -96 65 -81 0
-165 -124 -200 -295 -7 -33 -14 -65 -15 -72 -3 -7 -24 -4 -68 12 -246 90 -458
65 -597 -68 -110 -106 -170 -252 -178 -433 -3 -84 0 -124 12 -166 19 -67 20
-79 4 -77 -37 5 -63 -4 -89 -30 -41 -42 -41 -97 2 -145 26 -31 194 -149 287
-202 18 -10 31 -23 29 -29 -2 -5 -58 -39 -124 -75 -66 -36 -132 -73 -147 -83
-15 -10 -29 -17 -31 -15 -2 2 -23 30 -48 64 -49 66 -121 120 -174 130 -19 4
-59 4 -88 1 -82 -8 -225 -88 -225 -125 1 -46 113 -177 178 -208 63 -30 138
-30 213 0 36 14 77 26 91 26 14 0 70 11 124 25 127 32 134 32 102 -2 -79 -85
-94 -196 -40 -304 38 -78 87 -139 111 -139 31 0 111 61 153 117 86 113 81 221
-15 361 -16 24 -25 47 -21 52 13 12 152 60 173 60 10 0 54 -18 99 -39 116 -57
339 -145 551 -216 l184 -62 2 -89 c3 -137 29 -200 99 -236 54 -29 128 -29 182
0 52 27 114 96 145 163 l24 51 40 -6 c331 -51 526 -67 790 -67 l220 1 73 -37
c62 -31 85 -37 156 -41 61 -3 97 0 133 12 58 19 125 73 142 113 11 26 23 31
148 65 l136 36 176 -168 c240 -230 321 -294 351 -275 18 11 11 40 -23 97 l-34
55 91 -5 c112 -5 165 8 217 55 54 49 102 151 103 222 l1 56 -50 17 c-29 9 -84
17 -131 17 -71 1 -89 -3 -134 -27 -63 -32 -111 -96 -137 -180 -9 -31 -18 -59
-20 -61 -3 -4 -12 7 -130 161 l-83 107 170 83 c165 80 171 84 193 128 19 39
22 61 22 165 0 106 -3 125 -23 163 -38 71 -55 71 -196 6 -147 -68 -314 -134
-459 -182 l-109 -35 -46 46 c-43 43 -45 49 -44 94 3 68 -22 202 -47 251 -26
51 -79 103 -128 126 -31 15 -44 31 -70 84 -41 85 -134 181 -215 222 -34 16
-69 30 -79 30 -10 0 -39 19 -66 42 -77 67 -123 83 -228 82 -49 -1 -97 -3 -106
-5 -12 -3 -28 18 -58 75 -40 78 -40 79 -22 102 11 13 24 46 31 74 10 41 16 49
37 52 14 2 35 16 47 31 18 24 21 43 21 115 0 74 -4 96 -29 148 -22 50 -26 66
-17 82 57 106 -144 297 -374 356 -81 21 -188 27 -255 15z m227 -54 c140 -33
266 -110 334 -204 46 -63 48 -78 14 -91 -32 -12 -31 -19 5 -77 56 -88 73 -182
46 -248 -16 -39 -19 -40 -47 -24 -30 15 -49 -5 -49 -53 0 -41 -23 -109 -37
-107 -4 1 -28 23 -52 50 l-45 50 22 44 c12 24 27 73 33 107 28 151 -66 314
-223 388 -213 101 -437 -11 -489 -245 -12 -53 -12 -53 -57 -59 -25 -3 -47 -4
-50 -2 -11 12 32 159 69 232 62 126 156 210 268 240 63 17 183 17 258 -1z m-9
-219 c64 -33 123 -91 154 -154 30 -62 32 -187 4 -250 -10 -23 -22 -42 -25 -42
-3 0 -26 14 -51 31 -25 16 -70 43 -101 59 -48 25 -58 34 -63 63 -7 39 -80 153
-107 168 -10 5 -25 16 -34 25 -9 9 -41 27 -71 39 l-56 23 31 21 c55 39 101 51
186 48 63 -3 91 -9 133 -31z m-871 -240 c27 -23 27 -26 15 -58 -43 -108 -46
-118 -36 -128 17 -17 37 -2 78 62 69 107 167 154 174 83 2 -20 -6 -42 -22 -63
-25 -34 -25 -62 -1 -62 14 0 65 55 65 70 0 5 7 16 16 24 11 12 36 16 93 16
262 0 542 -120 706 -302 105 -117 150 -238 143 -382 -4 -78 -10 -102 -41 -169
-78 -168 -239 -323 -477 -459 -215 -123 -418 -188 -587 -188 -290 0 -485 197
-522 526 -20 185 19 385 110 565 28 56 31 60 44 43 23 -32 39 -3 36 68 -4 124
69 320 134 359 38 24 38 24 72 -5z m-427 -306 c41 -10 92 -25 112 -34 l37 -16
-22 -34 c-12 -18 -27 -41 -32 -51 -10 -16 -13 -17 -41 -2 -57 30 -156 49 -224
45 -119 -9 -222 -85 -277 -203 -23 -50 -27 -74 -28 -145 0 -98 12 -144 57
-220 66 -109 175 -164 326 -164 l82 0 10 -35 c13 -48 13 -48 -10 -71 -26 -26
-89 -26 -140 0 -52 26 -59 25 -71 -10 -8 -22 -17 -30 -35 -30 -61 0 -160 83
-205 172 -27 53 -39 61 -61 41 -17 -15 -20 -15 -38 2 -40 36 -63 122 -64 235
-1 169 48 308 145 414 112 122 270 157 479 106z m-192 -187 c-17 -60 -4 -172
28 -238 28 -60 108 -150 125 -140 5 4 9 -28 9 -77 0 -46 3 -93 6 -105 6 -22 4
-23 -68 -23 -114 0 -171 21 -237 88 -70 71 -91 126 -91 237 0 86 18 139 66
202 29 38 118 93 151 93 20 0 21 -2 11 -37z m2111 -100 c77 -31 142 -102 156
-171 19 -91 -127 -164 -236 -118 -53 22 -78 57 -92 123 -7 33 -17 66 -23 74
-6 8 -14 33 -18 56 l-6 42 37 6 c21 4 43 8 48 10 17 6 99 -7 134 -22z m244
-134 c23 -12 70 -50 104 -85 114 -114 154 -246 123 -416 -12 -69 -13 -70 -39
-63 -14 4 -63 9 -109 12 -71 4 -95 1 -167 -21 -46 -15 -87 -31 -90 -36 -8 -13
-4 -12 75 5 36 8 101 14 145 15 99 0 154 -24 202 -88 43 -57 54 -98 60 -218 6
-120 -8 -156 -83 -223 -26 -22 -41 -41 -33 -41 30 1 96 39 126 73 18 21 35 37
37 37 14 0 86 -105 95 -137 37 -132 -163 -222 -341 -154 -99 38 -132 90 -167
263 -13 63 -41 110 -84 142 -21 15 -42 20 -90 19 -537 -5 -742 2 -758 29 -5 7
-9 32 -9 55 0 23 -4 44 -9 47 -11 7 -21 -28 -21 -75 0 -19 -7 -78 -16 -130
-52 -306 -170 -481 -307 -455 -92 17 -124 94 -113 276 3 63 14 157 24 209 l17
94 100 31 c313 99 634 321 776 536 40 60 89 169 89 197 0 10 12 -2 29 -28 84
-134 353 -112 391 32 6 22 8 50 5 62 -20 68 -22 66 38 36z m332 -341 c45 -39
70 -87 85 -165 12 -60 9 -177 -6 -238 l-7 -30 25 22 24 23 29 -30 c21 -22 25
-31 14 -34 -25 -9 -133 -35 -135 -33 0 1 -11 35 -23 74 -13 43 -34 87 -51 107
l-30 34 16 61 c10 41 14 93 12 151 -2 50 0 90 4 90 4 0 23 -14 43 -32z m-3058
-65 c52 -31 107 -73 124 -94 16 -20 52 -52 80 -71 47 -31 55 -34 103 -27 41 5
61 2 104 -17 28 -13 109 -44 180 -70 79 -29 146 -61 177 -84 28 -21 66 -48 85
-60 19 -12 26 -19 15 -15 -202 69 -337 121 -475 185 -61 29 -113 50 -116 48
-5 -6 251 -129 351 -169 139 -55 404 -137 543 -169 45 -10 52 -15 52 -36 0
-21 -3 -23 -32 -17 -134 25 -547 167 -747 257 -191 86 -471 235 -563 298 -50
35 -29 10 30 -35 242 -185 855 -471 1230 -573 34 -10 62 -21 62 -26 0 -13 -10
-10 -131 28 -301 96 -654 250 -904 392 -72 41 -256 162 -296 194 -18 15 -39
51 -39 67 0 17 38 51 57 51 9 0 59 -25 110 -57z m632 -194 c24 -46 29 -60 17
-56 -9 4 -44 14 -77 22 -83 22 -110 36 -107 54 3 11 13 15 36 13 18 -1 45 4
60 13 15 8 30 14 33 15 3 0 20 -28 38 -61z m3376 17 c28 -42 40 -138 26 -211
-29 -161 -73 -158 -104 7 -16 88 16 228 53 228 5 0 17 -11 25 -24z m-128 -69
l-11 -49 -121 -59 c-67 -32 -128 -59 -136 -59 -8 0 -19 -4 -24 -9 -20 -18
-256 -86 -452 -129 l-43 -10 0 44 c0 43 1 43 43 54 231 58 468 139 647 220 58
26 106 46 107 46 1 -1 -4 -23 -10 -49z m-4230 -108 c36 -17 93 -73 116 -114 4
-7 -29 -6 -96 2 -149 19 -156 12 -29 -26 61 -19 112 -37 112 -41 0 -4 -28 -20
-62 -35 -76 -34 -152 -37 -200 -6 -51 31 -138 132 -138 159 0 5 30 26 68 45
82 45 159 50 229 16z m583 -4 c14 -8 23 -14 20 -15 -3 0 -66 -20 -139 -45 -74
-25 -135 -44 -137 -42 -4 4 209 117 221 116 6 0 21 -6 35 -14z m3640 -27 l0
-43 -108 -37 c-59 -20 -136 -39 -173 -42 -49 -4 -92 -16 -158 -46 -51 -23
-135 -52 -189 -65 l-97 -24 -27 26 c-16 15 -28 30 -28 33 0 4 39 15 88 24 220
43 470 118 607 182 39 18 73 33 78 33 4 1 7 -18 7 -41z m-2630 -105 c-1 -42
-12 -44 -130 -14 l-115 29 123 1 c110 1 122 -1 122 -16z m2588 -93 c-122 -61
-271 -119 -418 -163 -149 -45 -180 -51 -180 -38 0 6 7 11 16 11 60 0 430 131
580 205 38 19 76 34 84 34 8 0 -28 -22 -82 -49z m-3720 -97 c-2 -51 -1 -93 2
-93 7 0 50 176 50 203 0 34 19 16 52 -50 39 -80 43 -147 11 -208 -23 -44 -114
-135 -135 -135 -15 0 -71 79 -93 132 -32 79 -8 168 68 246 40 41 42 42 46 20
2 -13 1 -65 -1 -115z m2130 112 l314 0 19 -24 c10 -13 19 -26 19 -30 0 -16
-509 -21 -742 -7 l-128 8 0 35 0 36 103 -9 c56 -4 243 -8 415 -9z m-128 -88
c146 -1 315 2 377 6 l112 8 7 -36 c3 -20 3 -39 0 -42 -4 -4 -140 -7 -304 -8
-309 0 -592 18 -592 39 0 6 3 20 6 32 5 19 9 20 67 11 34 -5 181 -9 327 -10z
m1630 -192 l83 -110 -109 105 c-101 97 -108 106 -89 117 11 6 23 9 26 5 3 -4
44 -56 89 -117z m538 94 c26 -7 51 -15 56 -19 12 -12 -19 -109 -54 -163 -40
-63 -98 -91 -191 -90 -110 0 -111 10 -9 82 50 35 90 67 90 72 0 8 -97 -35
-173 -77 -16 -9 -30 -14 -33 -11 -9 8 32 98 41 90 4 -4 5 -2 1 5 -12 20 31 69
86 96 57 29 111 33 186 15z m-2275 -80 c108 -13 259 -22 407 -25 129 -3 240
-5 245 -5 6 -1 -8 -5 -30 -10 -112 -23 -523 1 -810 47 -121 19 -137 23 -131
33 3 4 37 2 76 -5 39 -8 148 -23 243 -35z" fill="rgb(46, 46, 46)"/>
<path d="M3087 2032 c5 -55 3 -61 -26 -94 -18 -20 -44 -38 -62 -42 -36 -7 -92
16 -114 47 -21 31 -29 14 -10 -23 64 -124 255 -70 255 73 0 36 -26 97 -41 97
-4 0 -5 -26 -2 -58z" fill="rgb(46, 46, 46)"/>
<path d="M2585 1923 c-94 -23 -121 -223 -50 -364 42 -82 104 -110 189 -85 100
29 186 115 186 184 0 123 -209 294 -325 265z m54 -258 c35 -62 40 -78 31 -95
-15 -28 -27 -25 -65 13 -53 53 -71 157 -26 157 11 0 32 -27 60 -75z" fill="rgb(46, 46, 46)"/>
<path d="M2373 1640 c31 -114 -104 -183 -194 -99 -39 36 -49 30 -25 -16 19
-35 84 -75 122 -75 10 0 38 9 62 20 34 15 47 29 63 65 20 45 20 59 -3 118 -17
45 -37 35 -25 -13z" fill="rgb(46, 46, 46)"/>
<path d="M2862 1508 c-20 -20 -15 -75 9 -92 45 -31 96 24 71 79 -13 27 -58 35
-80 13z" fill="rgb(46, 46, 46)"/>
<path d="M1695 3051 c-35 -4 -50 -10 -50 -21 0 -11 11 -15 43 -13 23 1 42 -2
42 -7 0 -5 -18 -30 -40 -55 -61 -70 -54 -80 50 -69 58 5 70 10 68 23 -3 11
-13 15 -33 14 -57 -5 -59 4 -11 59 25 29 45 57 43 63 -4 12 -45 14 -112 6z" fill="rgb(46, 46, 46)"/>
</g>
</svg>
